<svg xmlns="http://www.w3.org/2000/svg" xmlns:xlink="http://www.w3.org/1999/xlink" viewBox="0 0 175.92 114.34"><defs><style>.cls-1,.cls-6{fill:none;}.cls-2{clip-path:url(#clip-path);}.cls-3{fill:#010101;}.cls-4{fill:#fff;}.cls-5{fill:#1f1f1f;}.cls-6{stroke:#010101;stroke-linejoin:round;stroke-width:1.86px;}.cls-7{fill:#fbfbfb;}</style><clipPath id="clip-path" transform="translate(-1.51 -2.93)"><rect class="cls-1" width="178.94" height="119.18"/></clipPath></defs><title>sapps-contact-us</title><g id="Capa_2" data-name="Capa 2"><g id="Capa_1-2" data-name="Capa 1"><g class="cls-2"><g id="Grupo_692" data-name="Grupo 692"><path id="Trazado_281" data-name="Trazado 281" class="cls-3" d="M74.82,3.93a5.78,5.78,0,0,1,2.54.4,6.41,6.41,0,0,1,2.06,1.89C84.1,12,94,19.6,98.66,25.37c-1.89,0-4,2.93-5.48,3.19-7.5,4-8.67,4.4-22.28,10.88-1.6-.38-23.18-20.53-24.71-20.95Z" transform="translate(-1.51 -2.93)"/><g id="Grupo_308" data-name="Grupo 308"><path id="Trazado_282" data-name="Trazado 282" class="cls-3" d="M74.5,4.92c4.09.19,9.78,8.14,12.72,10.85A118.65,118.65,0,0,1,97.48,25.94l1.12-1.58a196.61,196.61,0,0,1-51.75-6.78l.09,1.74L75.57,4.76c1.63-.83-.25-2.3-1.5-1.66L45.44,17.66c-.79.4-.87,1.47.09,1.73a201.08,201.08,0,0,0,53.18,7c.78,0,1.79-.79,1.12-1.58-4.22-5-9.31-9.15-14-13.67C82.54,8,80,3.17,75.14,2.94,73.61,2.87,72.66,4.83,74.5,4.92Z" transform="translate(-1.51 -2.93)"/></g></g><g id="Grupo_689" data-name="Grupo 689"><g id="Grupo_301" data-name="Grupo 301"><path id="Trazado_273" data-name="Trazado 273" class="cls-4" d="M58.47,90C57,99.38,56.52,103.74,55,113.11a4,4,0,0,1-.81,2.21c-.89,1-2.44.87-3.75.68q-22.32-3.23-44.56-7a3.54,3.54,0,0,1-2-.8,3.51,3.51,0,0,1-.65-2.59,100,100,0,0,1,4.1-28.4Z" transform="translate(-1.51 -2.93)"/><g id="Grupo_300" data-name="Grupo 300"><path id="Trazado_274" data-name="Trazado 274" class="cls-5" d="M59.79,90.34c-.77,4.91-1.46,9.84-2.17,14.76-.41,2.83-.11,8.92-2.37,11.06-2.52,2.38-8.32.28-11.14-.14q-9.11-1.35-18.18-2.79c-6.31-1-12.65-1.89-18.92-3.1-2.27-.43-4.16-.81-5-3.21-1.34-4,.24-11.06.79-15.12A119.26,119.26,0,0,1,6.07,76.64c.13-.48.93-.46,1.29-.37L58.48,89.06c1.43.36,1.77,2.34,0,1.89L11,79.08C10.53,79,8.26,78,7.81,78.27c-.11.07-.34-.16-.45-.11,1.16-.52-1,9.16-1,9A94.48,94.48,0,0,0,4.79,99.74c-.14,2.47-1.18,6.55,1.14,8.32,1.44,1.1,5.93,1,7.78,1.31q9.28,1.53,18.59,3c5,.76,10.64,2.46,15.61,2.34,4.78-.11,5.74-1.46,6.42-5.9q.39-2.58.75-5.16c.67-4.65,1.33-9.3,2.06-14C57.35,88.34,60,89.21,59.79,90.34Z" transform="translate(-1.51 -2.93)"/></g></g><g id="Grupo_309" data-name="Grupo 309"><path id="Trazado_281-2" data-name="Trazado 281-2" class="cls-4" d="M28.91,100.43a5.76,5.76,0,0,0,2.52.53,6.43,6.43,0,0,0,2.6-1c6.44-3.71,18.41-7.28,24.84-11C44.7,83.3,22.56,78,7.37,76.56Z" transform="translate(-1.51 -2.93)"/><g id="Grupo_308-2" data-name="Grupo 308-2"><path id="Trazado_282-2" data-name="Trazado 282-2" class="cls-5" d="M29,99.39c3.9,1.29,12.07-4.11,15.78-5.59A116.3,116.3,0,0,0,58,88l.48,1.88A196.18,196.18,0,0,0,7.66,77.64l.71-1.59L29.91,99.92c1.22,1.36-1.06,2.06-2,1L6.38,77.06c-.59-.65-.29-1.69.71-1.59A201.7,201.7,0,0,1,59.28,88c.72.28,1.39,1.38.49,1.87-5.74,3.16-12,5.22-18,7.75-4.18,1.76-8.24,5.37-12.91,3.83C27.4,101,27.21,98.81,29,99.39Z" transform="translate(-1.51 -2.93)"/></g></g></g><g id="Rect치ngulo_141" data-name="Rect치ngulo 141"><rect class="cls-4" x="50.42" y="4.05" width="41.26" height="38.66" rx="2.6"/><rect class="cls-6" x="51.35" y="4.98" width="39.4" height="36.8" rx="1.67"/></g><g id="Grupo_301-2" data-name="Grupo 301-2"><g id="Grupo_300-2" data-name="Grupo 300-2"><path id="Trazado_274-2" data-name="Trazado 274-2" class="cls-5" d="M99.58,26.21c-.17,5-.25,9.94-.36,14.91-.06,2.86,1,8.86-1,11.26C96,55.05,90,53.66,87.14,53.59Q78,53.36,68.77,53c-6.37-.22-12.78-.33-19.14-.77-2.3-.15-4.23-.3-5.33-2.57-1.81-3.76-1.11-11-1.06-15.1a119.36,119.36,0,0,1,1.38-15.44c.07-.49.87-.57,1.23-.52L70.83,40,98.12,25.1c1.47.19,2,2.1.2,1.88L70.83,41.12,49.82,21c-.5-.07-2.86-.71-3.28-.41-.1.08-.35-.12-.46-.06,1.09-.65.09,9.21.1,9.1a93.39,93.39,0,0,0,0,12.63c.15,2.46-.38,6.63,2.13,8.11,1.56.92,6,.27,7.88.35q9.41.39,18.81.68c5,.16,10.85,1.15,15.77.42,4.72-.69,5.52-2.14,5.64-6.63,0-1.74.09-3.47.12-5.21.1-4.7.19-9.39.34-14.09C96.91,24.53,99.62,25.07,99.58,26.21Z" transform="translate(-1.51 -2.93)"/></g><path id="Trazado_273-2" data-name="Trazado 273-2" class="cls-7" d="M97.13,26.45c-.32,9.1-.24,13.3-.57,22.4A3.91,3.91,0,0,1,96.05,51c-.74,1-2.22,1.11-3.49,1.09q-21.61-.47-43.22-1.46a3.43,3.43,0,0,1-2-.53,3.39,3.39,0,0,1-.92-2.39A95.65,95.65,0,0,1,47,20.25l23.86,19.6Z" transform="translate(-1.51 -2.93)"/></g><g id="Grupo_691" data-name="Grupo 691"><g id="Grupo_301-3" data-name="Grupo 301-3"><path id="Trazado_273-3" data-name="Trazado 273-3" class="cls-4" d="M171.9,58.06c1.48,9.37,2.39,13.66,3.87,23a4.16,4.16,0,0,1-.09,2.35c-.55,1.21-2.05,1.58-3.35,1.8q-22.23,3.84-44.53,7.1a2.66,2.66,0,0,1-3.59-2.4,100.18,100.18,0,0,1-4.87-28.27Z" transform="translate(-1.51 -2.93)"/><g id="Grupo_300-3" data-name="Grupo 300-3"><path id="Trazado_274-3" data-name="Trazado 274-3" class="cls-5" d="M173.27,58c.78,4.91,1.64,9.8,2.49,14.71.48,2.81,2.64,8.5,1.15,11.24-1.65,3-7.81,2.83-10.63,3.3q-9.08,1.53-18.15,3c-6.3,1-12.61,2.1-18.94,2.89-2.29.28-4.21.51-5.72-1.52C121,88.22,120.28,81,119.55,77A119.19,119.19,0,0,1,118,61.52c0-.49.75-.72,1.11-.75l52.55-3.61c1.48-.1,2.41,1.67.56,1.8l-48.76,3.35c-.51,0-3-.15-3.3.23-.09.09-.37,0-.46,0,.94-.85,1.84,9,1.82,8.92a93.13,93.13,0,0,0,2.4,12.39c.62,2.39.89,6.59,3.64,7.56,1.71.61,6-.88,7.81-1.16q9.3-1.41,18.59-2.91c4.93-.8,10.88-.94,15.57-2.59,4.5-1.58,5-3.16,4.27-7.6q-.42-2.57-.87-5.13c-.81-4.63-1.61-9.26-2.35-13.9C170.32,56.82,173.09,56.84,173.27,58Z" transform="translate(-1.51 -2.93)"/></g></g><g id="Grupo_309-2" data-name="Grupo 309-2"><path id="Trazado_281-3" data-name="Trazado 281-3" class="cls-4" d="M147,77.09a5.74,5.74,0,0,0,2.57-.27A6.24,6.24,0,0,0,151.73,75c5-5.51,15.26-12.6,20.23-18.12-15.21-1-37.9.83-52.79,4.12Z" transform="translate(-1.51 -2.93)"/><g id="Grupo_308-3" data-name="Grupo 308-3"><path id="Trazado_282-3" data-name="Trazado 282-3" class="cls-5" d="M146.75,76.09c4.1,0,10.2-7.63,13.28-10.19a117,117,0,0,0,10.78-9.61l1,1.63A196.66,196.66,0,0,0,119.78,62l.19-1.73,27.84,16c1.58.91-.37,2.28-1.59,1.58l-27.84-16a.9.9,0,0,1,.19-1.73,201.5,201.5,0,0,1,53.5-4.18c.77,0,1.74.88,1,1.63-4.49,4.77-9.79,8.66-14.73,12.93-3.44,3-6.19,7.65-11.1,7.62C145.76,78.09,144.9,76.08,146.75,76.09Z" transform="translate(-1.51 -2.93)"/></g></g></g><path id="Sustracci칩n_2" data-name="Sustracci칩n 2" class="cls-3" d="M71.88,40.79a7.64,7.64,0,0,1-1.44-.14l-.26-.07a1.52,1.52,0,0,1-.73-.33L45.34,19.86a1,1,0,0,1-.22-.25.92.92,0,0,1-.08-.92.88.88,0,0,1,.81-.44h.71l2.64,2.11L70.9,38.71H71c2.95,0,7.22-2.83,10.66-5.11h0c1.36-.9,2.54-1.68,3.47-2.18l1.33-.71c1.91-1,3.88-2.06,5.8-3.16,1.31-.39,4.66-1.42,7.51-2.54a.72.72,0,0,1-.31.89,108.41,108.41,0,0,1-11.67,6.8h0c-1.68.89-3.43,1.81-5.12,2.75-1,.57-2,1.26-3,1.93h0A31.07,31.07,0,0,1,76,39.73,9.1,9.1,0,0,1,71.88,40.79Z" transform="translate(-1.51 -2.93)"/></g></g></g></svg>